# xmcd
#
# Track frame offsets: 
#        150
#        20982
#        35390
#        52424
#        67514
#        81937
#        93849
#        108708
#        122398
#        136064
#        152393
#        164653
#        180010
#        193640
#        208685
#        221750
#        236301
#        254528
#
# Disc length: 3616 seconds
#
# Revision: 0
# Processed by: cddbd v1.5.2PL0 Copyright (c) Steve Scherf et al.
# Submitted via: ExactAudioCopy v1.1
#
DISCID=f10e1e12
DTITLE=Various Artist - MNM Big Hits 2019 Vol. 4 - CD 2
DYEAR=2019
DGENRE=Top 40
TTITLE0=Avicii - Heaven
TTITLE1=Regi Feat. Jake Reese and OT - Summer Life
TTITLE2=Kygo and Whitney Houston - Higher Love
TTITLE3=Sam Smith - How Do You Sleep
TTITLE4=Alvaro Soler - La Libertad
TTITLE5=OneRepublic - Rescue Me
TTITLE6=Lauv Feat. Anne-Marie - Fuck, I'm Lonely
TTITLE7=Suzan and Freek - Blauwe Dag
TTITLE8=Jonas Brothers - Only Human
TTITLE9=The Chainsmokers Feat. Bebe Rexha - Call You Mine
TTITLE10=Gers Pardoel - Hey Jij!!
TTITLE11=Lewis Capaldi - Hold Me While You Wait
TTITLE12=Marshmello and Kane Brown - One Thing Right
TTITLE13=JP Cooper and Astrid S - Sing It With Me
TTITLE14=Palm Trees Feat. OT - Moi Lolita
TTITLE15=Alan Walker, Sabrina Carpenter and Farruko - On My Way
TTITLE16=Dermot Kennedy - Outnumbered
TTITLE17=P!nk Feat. Cash Cash - Can We Pretend
EXTD=
EXTT0=
EXTT1=
EXTT2=
EXTT3=
EXTT4=
EXTT5=
EXTT6=
EXTT7=
EXTT8=
EXTT9=
EXTT10=
EXTT11=
EXTT12=
EXTT13=
EXTT14=
EXTT15=
EXTT16=
EXTT17=
PLAYORDER=
